<mxfile host="app.diagrams.net" agent="Mozilla/5.0 (Windows NT 10.0; Win64; x64) AppleWebKit/537.36 (KHTML, like Gecko) Chrome/128.0.0.0 Safari/537.36 Edg/128.0.0.0" version="24.7.14">
  <diagram id="R2lEEEUBdFMjLlhIrx00" name="Page-1">
    <mxGraphModel dx="1846" dy="581" grid="1" gridSize="10" guides="1" tooltips="1" connect="1" arrows="1" fold="1" page="1" pageScale="1" pageWidth="850" pageHeight="1100" math="0" shadow="0" extFonts="Permanent Marker^https://fonts.googleapis.com/css?family=Permanent+Marker">
      <root>
        <mxCell id="0" />
        <mxCell id="1" parent="0" />
        <mxCell id="lG-DeSuz2KqsoeOrAYIB-4" value="Factory" style="whiteSpace=wrap;html=1;align=center;" parent="1" vertex="1">
          <mxGeometry x="120" y="235" width="100" height="40" as="geometry" />
        </mxCell>
        <mxCell id="lG-DeSuz2KqsoeOrAYIB-5" value="Bike model" style="whiteSpace=wrap;html=1;align=center;" parent="1" vertex="1">
          <mxGeometry x="620" y="235" width="100" height="40" as="geometry" />
        </mxCell>
        <mxCell id="lG-DeSuz2KqsoeOrAYIB-6" value="Supplier" style="whiteSpace=wrap;html=1;align=center;" parent="1" vertex="1">
          <mxGeometry x="620" y="520" width="100" height="40" as="geometry" />
        </mxCell>
        <mxCell id="lG-DeSuz2KqsoeOrAYIB-8" value="Supplied by" style="shape=rhombus;perimeter=rhombusPerimeter;whiteSpace=wrap;html=1;align=center;" parent="1" vertex="1">
          <mxGeometry x="365" y="510" width="120" height="60" as="geometry" />
        </mxCell>
        <mxCell id="lG-DeSuz2KqsoeOrAYIB-9" value="Uses" style="shape=rhombus;perimeter=rhombusPerimeter;whiteSpace=wrap;html=1;align=center;" parent="1" vertex="1">
          <mxGeometry x="110" y="370" width="120" height="60" as="geometry" />
        </mxCell>
        <mxCell id="lG-DeSuz2KqsoeOrAYIB-3" value="Produces" style="shape=rhombus;perimeter=rhombusPerimeter;whiteSpace=wrap;html=1;align=center;" parent="1" vertex="1">
          <mxGeometry x="365" y="225" width="120" height="60" as="geometry" />
        </mxCell>
        <mxCell id="lG-DeSuz2KqsoeOrAYIB-11" value="" style="shape=flexArrow;html=1;rounded=0;entryX=0;entryY=0.5;entryDx=0;entryDy=0;exitX=1;exitY=0.5;exitDx=0;exitDy=0;width=5;endSize=2.07;" parent="1" source="lG-DeSuz2KqsoeOrAYIB-4" target="lG-DeSuz2KqsoeOrAYIB-3" edge="1">
          <mxGeometry relative="1" as="geometry">
            <mxPoint x="510" y="440" as="sourcePoint" />
            <mxPoint x="350" y="440" as="targetPoint" />
          </mxGeometry>
        </mxCell>
        <mxCell id="lG-DeSuz2KqsoeOrAYIB-12" value="1" style="resizable=0;html=1;whiteSpace=wrap;align=right;verticalAlign=bottom;" parent="lG-DeSuz2KqsoeOrAYIB-11" connectable="0" vertex="1">
          <mxGeometry x="1" relative="1" as="geometry">
            <mxPoint x="-15" y="-5" as="offset" />
          </mxGeometry>
        </mxCell>
        <mxCell id="lG-DeSuz2KqsoeOrAYIB-13" value="" style="endArrow=none;html=1;rounded=0;exitX=0;exitY=0.5;exitDx=0;exitDy=0;entryX=1;entryY=0.5;entryDx=0;entryDy=0;shape=link;" parent="1" source="lG-DeSuz2KqsoeOrAYIB-5" target="lG-DeSuz2KqsoeOrAYIB-3" edge="1">
          <mxGeometry relative="1" as="geometry">
            <mxPoint x="350" y="440" as="sourcePoint" />
            <mxPoint x="510" y="440" as="targetPoint" />
          </mxGeometry>
        </mxCell>
        <mxCell id="lG-DeSuz2KqsoeOrAYIB-14" value="N" style="resizable=0;html=1;whiteSpace=wrap;align=right;verticalAlign=bottom;" parent="lG-DeSuz2KqsoeOrAYIB-13" connectable="0" vertex="1">
          <mxGeometry x="1" relative="1" as="geometry" />
        </mxCell>
        <mxCell id="lG-DeSuz2KqsoeOrAYIB-15" value="" style="shape=flexArrow;html=1;rounded=0;entryX=0.5;entryY=0;entryDx=0;entryDy=0;strokeWidth=1;endArrow=block;endFill=0;startArrow=none;startFill=0;endWidth=18;endSize=1.73;width=4;exitX=0.5;exitY=1;exitDx=0;exitDy=0;" parent="1" source="lG-DeSuz2KqsoeOrAYIB-4" target="lG-DeSuz2KqsoeOrAYIB-9" edge="1">
          <mxGeometry relative="1" as="geometry">
            <mxPoint x="220" y="300" as="sourcePoint" />
            <mxPoint x="510" y="440" as="targetPoint" />
          </mxGeometry>
        </mxCell>
        <mxCell id="lG-DeSuz2KqsoeOrAYIB-16" value="1" style="resizable=0;html=1;whiteSpace=wrap;align=right;verticalAlign=bottom;" parent="lG-DeSuz2KqsoeOrAYIB-15" connectable="0" vertex="1">
          <mxGeometry x="1" relative="1" as="geometry">
            <mxPoint x="-10" y="-10" as="offset" />
          </mxGeometry>
        </mxCell>
        <mxCell id="lG-DeSuz2KqsoeOrAYIB-17" value="" style="shape=link;html=1;rounded=0;exitX=0.5;exitY=0;exitDx=0;exitDy=0;entryX=0.5;entryY=1;entryDx=0;entryDy=0;" parent="1" target="lG-DeSuz2KqsoeOrAYIB-9" edge="1">
          <mxGeometry relative="1" as="geometry">
            <mxPoint x="170" y="520" as="sourcePoint" />
            <mxPoint x="510" y="440" as="targetPoint" />
          </mxGeometry>
        </mxCell>
        <mxCell id="lG-DeSuz2KqsoeOrAYIB-18" value="N" style="resizable=0;html=1;whiteSpace=wrap;align=right;verticalAlign=bottom;" parent="lG-DeSuz2KqsoeOrAYIB-17" connectable="0" vertex="1">
          <mxGeometry x="1" relative="1" as="geometry">
            <mxPoint x="-10" y="20" as="offset" />
          </mxGeometry>
        </mxCell>
        <mxCell id="lG-DeSuz2KqsoeOrAYIB-20" value="" style="shape=link;html=1;rounded=0;exitX=1;exitY=0.5;exitDx=0;exitDy=0;entryX=0;entryY=0.5;entryDx=0;entryDy=0;" parent="1" target="lG-DeSuz2KqsoeOrAYIB-8" edge="1">
          <mxGeometry relative="1" as="geometry">
            <mxPoint x="220" y="540" as="sourcePoint" />
            <mxPoint x="510" y="440" as="targetPoint" />
          </mxGeometry>
        </mxCell>
        <mxCell id="lG-DeSuz2KqsoeOrAYIB-21" value="N" style="resizable=0;html=1;whiteSpace=wrap;align=right;verticalAlign=bottom;" parent="lG-DeSuz2KqsoeOrAYIB-20" connectable="0" vertex="1">
          <mxGeometry x="1" relative="1" as="geometry" />
        </mxCell>
        <mxCell id="lG-DeSuz2KqsoeOrAYIB-22" value="" style="shape=flexArrow;html=1;rounded=0;entryX=1;entryY=0.5;entryDx=0;entryDy=0;exitX=0;exitY=0.5;exitDx=0;exitDy=0;width=5;endSize=4.2;startArrow=block;endArrow=none;endFill=0;" parent="1" source="lG-DeSuz2KqsoeOrAYIB-6" target="lG-DeSuz2KqsoeOrAYIB-8" edge="1">
          <mxGeometry relative="1" as="geometry">
            <mxPoint x="350" y="440" as="sourcePoint" />
            <mxPoint x="510" y="440" as="targetPoint" />
          </mxGeometry>
        </mxCell>
        <mxCell id="lG-DeSuz2KqsoeOrAYIB-23" value="1" style="resizable=0;html=1;whiteSpace=wrap;align=right;verticalAlign=bottom;" parent="lG-DeSuz2KqsoeOrAYIB-22" connectable="0" vertex="1">
          <mxGeometry x="1" relative="1" as="geometry" />
        </mxCell>
        <mxCell id="lG-DeSuz2KqsoeOrAYIB-25" value="" style="shape=flexArrow;html=1;rounded=0;entryX=1;entryY=0.5;entryDx=0;entryDy=0;exitX=0.5;exitY=1;exitDx=0;exitDy=0;edgeStyle=orthogonalEdgeStyle;width=4;endSize=5.47;" parent="1" source="lG-DeSuz2KqsoeOrAYIB-5" target="lG-DeSuz2KqsoeOrAYIB-9" edge="1">
          <mxGeometry relative="1" as="geometry">
            <mxPoint x="350" y="440" as="sourcePoint" />
            <mxPoint x="510" y="440" as="targetPoint" />
          </mxGeometry>
        </mxCell>
        <mxCell id="lG-DeSuz2KqsoeOrAYIB-26" value="1" style="resizable=0;html=1;whiteSpace=wrap;align=right;verticalAlign=bottom;" parent="lG-DeSuz2KqsoeOrAYIB-25" connectable="0" vertex="1">
          <mxGeometry x="1" relative="1" as="geometry" />
        </mxCell>
        <mxCell id="lG-DeSuz2KqsoeOrAYIB-27" value="Factory_ID" style="ellipse;whiteSpace=wrap;html=1;align=center;fontStyle=4;" parent="1" vertex="1">
          <mxGeometry x="-30" y="235" width="100" height="40" as="geometry" />
        </mxCell>
        <mxCell id="lG-DeSuz2KqsoeOrAYIB-28" value="" style="endArrow=none;html=1;rounded=0;exitX=1;exitY=0.5;exitDx=0;exitDy=0;entryX=0;entryY=0.5;entryDx=0;entryDy=0;" parent="1" source="lG-DeSuz2KqsoeOrAYIB-27" target="lG-DeSuz2KqsoeOrAYIB-4" edge="1">
          <mxGeometry relative="1" as="geometry">
            <mxPoint x="350" y="340" as="sourcePoint" />
            <mxPoint x="510" y="340" as="targetPoint" />
          </mxGeometry>
        </mxCell>
        <mxCell id="lG-DeSuz2KqsoeOrAYIB-29" value="M" style="resizable=0;html=1;whiteSpace=wrap;align=left;verticalAlign=bottom;" parent="lG-DeSuz2KqsoeOrAYIB-28" connectable="0" vertex="1">
          <mxGeometry x="-1" relative="1" as="geometry" />
        </mxCell>
        <mxCell id="lG-DeSuz2KqsoeOrAYIB-30" value="N" style="resizable=0;html=1;whiteSpace=wrap;align=right;verticalAlign=bottom;" parent="lG-DeSuz2KqsoeOrAYIB-28" connectable="0" vertex="1">
          <mxGeometry x="1" relative="1" as="geometry" />
        </mxCell>
        <mxCell id="lG-DeSuz2KqsoeOrAYIB-32" value="Location" style="ellipse;whiteSpace=wrap;html=1;align=center;" parent="1" vertex="1">
          <mxGeometry x="-30" y="160" width="100" height="40" as="geometry" />
        </mxCell>
        <mxCell id="lG-DeSuz2KqsoeOrAYIB-33" value="Address" style="ellipse;whiteSpace=wrap;html=1;align=center;" parent="1" vertex="1">
          <mxGeometry x="-30" y="80" width="100" height="40" as="geometry" />
        </mxCell>
        <mxCell id="lG-DeSuz2KqsoeOrAYIB-35" value="" style="endArrow=none;html=1;rounded=0;exitX=1;exitY=0.5;exitDx=0;exitDy=0;entryX=0.25;entryY=0;entryDx=0;entryDy=0;edgeStyle=orthogonalEdgeStyle;" parent="1" source="lG-DeSuz2KqsoeOrAYIB-32" target="lG-DeSuz2KqsoeOrAYIB-4" edge="1">
          <mxGeometry relative="1" as="geometry">
            <mxPoint x="350" y="340" as="sourcePoint" />
            <mxPoint x="510" y="340" as="targetPoint" />
          </mxGeometry>
        </mxCell>
        <mxCell id="lG-DeSuz2KqsoeOrAYIB-36" value="" style="endArrow=none;html=1;rounded=0;exitX=1;exitY=0.5;exitDx=0;exitDy=0;entryX=0.5;entryY=0;entryDx=0;entryDy=0;edgeStyle=orthogonalEdgeStyle;" parent="1" source="lG-DeSuz2KqsoeOrAYIB-33" target="lG-DeSuz2KqsoeOrAYIB-4" edge="1">
          <mxGeometry relative="1" as="geometry">
            <mxPoint x="350" y="340" as="sourcePoint" />
            <mxPoint x="510" y="340" as="targetPoint" />
          </mxGeometry>
        </mxCell>
        <mxCell id="lG-DeSuz2KqsoeOrAYIB-37" value="Part_ID" style="ellipse;whiteSpace=wrap;html=1;align=center;fontStyle=4;" parent="1" vertex="1">
          <mxGeometry x="-30" y="600" width="100" height="40" as="geometry" />
        </mxCell>
        <mxCell id="lG-DeSuz2KqsoeOrAYIB-38" value="Part_Name" style="ellipse;whiteSpace=wrap;html=1;align=center;" parent="1" vertex="1">
          <mxGeometry x="-30" y="680" width="100" height="40" as="geometry" />
        </mxCell>
        <mxCell id="lG-DeSuz2KqsoeOrAYIB-39" value="Qty_In_Stock" style="ellipse;whiteSpace=wrap;html=1;align=center;" parent="1" vertex="1">
          <mxGeometry x="-30" y="770" width="100" height="40" as="geometry" />
        </mxCell>
        <mxCell id="lG-DeSuz2KqsoeOrAYIB-40" value="" style="endArrow=none;html=1;rounded=0;exitX=1;exitY=0.5;exitDx=0;exitDy=0;entryX=0.25;entryY=1;entryDx=0;entryDy=0;edgeStyle=orthogonalEdgeStyle;" parent="1" source="lG-DeSuz2KqsoeOrAYIB-37" edge="1">
          <mxGeometry relative="1" as="geometry">
            <mxPoint x="350" y="740" as="sourcePoint" />
            <mxPoint x="145" y="560" as="targetPoint" />
          </mxGeometry>
        </mxCell>
        <mxCell id="lG-DeSuz2KqsoeOrAYIB-42" value="" style="endArrow=none;html=1;rounded=0;exitX=1;exitY=0.5;exitDx=0;exitDy=0;entryX=0.5;entryY=1;entryDx=0;entryDy=0;edgeStyle=orthogonalEdgeStyle;" parent="1" source="lG-DeSuz2KqsoeOrAYIB-38" edge="1">
          <mxGeometry relative="1" as="geometry">
            <mxPoint x="350" y="740" as="sourcePoint" />
            <mxPoint x="170" y="560" as="targetPoint" />
          </mxGeometry>
        </mxCell>
        <mxCell id="lG-DeSuz2KqsoeOrAYIB-43" value="" style="endArrow=none;html=1;rounded=0;entryX=0.75;entryY=1;entryDx=0;entryDy=0;edgeStyle=orthogonalEdgeStyle;" parent="1" edge="1">
          <mxGeometry relative="1" as="geometry">
            <mxPoint x="70" y="789.5" as="sourcePoint" />
            <mxPoint x="195" y="560" as="targetPoint" />
          </mxGeometry>
        </mxCell>
        <mxCell id="lG-DeSuz2KqsoeOrAYIB-45" value="Supplier_name" style="ellipse;whiteSpace=wrap;html=1;align=center;" parent="1" vertex="1">
          <mxGeometry x="620" y="680" width="100" height="40" as="geometry" />
        </mxCell>
        <mxCell id="lG-DeSuz2KqsoeOrAYIB-46" value="Supplier_ID" style="ellipse;whiteSpace=wrap;html=1;align=center;fontStyle=4;" parent="1" vertex="1">
          <mxGeometry x="470" y="680" width="100" height="40" as="geometry" />
        </mxCell>
        <mxCell id="lG-DeSuz2KqsoeOrAYIB-47" value="Contract_period" style="ellipse;whiteSpace=wrap;html=1;align=center;" parent="1" vertex="1">
          <mxGeometry x="760" y="680" width="100" height="40" as="geometry" />
        </mxCell>
        <mxCell id="lG-DeSuz2KqsoeOrAYIB-48" value="contact_address" style="ellipse;whiteSpace=wrap;html=1;align=center;" parent="1" vertex="1">
          <mxGeometry x="920" y="680" width="100" height="40" as="geometry" />
        </mxCell>
        <mxCell id="lG-DeSuz2KqsoeOrAYIB-49" value="" style="endArrow=none;html=1;rounded=0;exitX=0.5;exitY=0;exitDx=0;exitDy=0;entryX=0;entryY=1;entryDx=0;entryDy=0;edgeStyle=orthogonalEdgeStyle;" parent="1" source="lG-DeSuz2KqsoeOrAYIB-46" target="lG-DeSuz2KqsoeOrAYIB-6" edge="1">
          <mxGeometry relative="1" as="geometry">
            <mxPoint x="840" y="540" as="sourcePoint" />
            <mxPoint x="1000" y="540" as="targetPoint" />
          </mxGeometry>
        </mxCell>
        <mxCell id="lG-DeSuz2KqsoeOrAYIB-50" value="" style="endArrow=none;html=1;rounded=0;exitX=0.5;exitY=0;exitDx=0;exitDy=0;entryX=0.25;entryY=1;entryDx=0;entryDy=0;edgeStyle=orthogonalEdgeStyle;" parent="1" source="lG-DeSuz2KqsoeOrAYIB-45" target="lG-DeSuz2KqsoeOrAYIB-6" edge="1">
          <mxGeometry relative="1" as="geometry">
            <mxPoint x="840" y="540" as="sourcePoint" />
            <mxPoint x="1000" y="540" as="targetPoint" />
            <Array as="points">
              <mxPoint x="670" y="640" />
              <mxPoint x="645" y="640" />
            </Array>
          </mxGeometry>
        </mxCell>
        <mxCell id="lG-DeSuz2KqsoeOrAYIB-51" value="" style="endArrow=none;html=1;rounded=0;exitX=0.438;exitY=1.055;exitDx=0;exitDy=0;exitPerimeter=0;entryX=0.5;entryY=0;entryDx=0;entryDy=0;edgeStyle=elbowEdgeStyle;elbow=vertical;" parent="1" source="lG-DeSuz2KqsoeOrAYIB-6" target="lG-DeSuz2KqsoeOrAYIB-47" edge="1">
          <mxGeometry relative="1" as="geometry">
            <mxPoint x="840" y="540" as="sourcePoint" />
            <mxPoint x="1000" y="540" as="targetPoint" />
          </mxGeometry>
        </mxCell>
        <mxCell id="lG-DeSuz2KqsoeOrAYIB-52" value="" style="endArrow=none;html=1;rounded=0;exitX=1;exitY=0.5;exitDx=0;exitDy=0;entryX=0.5;entryY=0;entryDx=0;entryDy=0;edgeStyle=orthogonalEdgeStyle;" parent="1" source="lG-DeSuz2KqsoeOrAYIB-6" target="lG-DeSuz2KqsoeOrAYIB-48" edge="1">
          <mxGeometry relative="1" as="geometry">
            <mxPoint x="840" y="540" as="sourcePoint" />
            <mxPoint x="1000" y="540" as="targetPoint" />
          </mxGeometry>
        </mxCell>
        <mxCell id="lG-DeSuz2KqsoeOrAYIB-55" value="Model_ID" style="ellipse;whiteSpace=wrap;html=1;align=center;fontStyle=4;" parent="1" vertex="1">
          <mxGeometry x="620" y="90" width="100" height="40" as="geometry" />
        </mxCell>
        <mxCell id="lG-DeSuz2KqsoeOrAYIB-56" value="Model_Name" style="ellipse;whiteSpace=wrap;html=1;align=center;" parent="1" vertex="1">
          <mxGeometry x="790" y="90" width="100" height="40" as="geometry" />
        </mxCell>
        <mxCell id="lG-DeSuz2KqsoeOrAYIB-57" value="Qty_produced" style="ellipse;whiteSpace=wrap;html=1;align=center;" parent="1" vertex="1">
          <mxGeometry x="790" y="235" width="100" height="40" as="geometry" />
        </mxCell>
        <mxCell id="lG-DeSuz2KqsoeOrAYIB-58" value="" style="endArrow=none;html=1;rounded=0;exitX=0.5;exitY=1;exitDx=0;exitDy=0;entryX=0.5;entryY=0;entryDx=0;entryDy=0;" parent="1" source="lG-DeSuz2KqsoeOrAYIB-55" target="lG-DeSuz2KqsoeOrAYIB-5" edge="1">
          <mxGeometry relative="1" as="geometry">
            <mxPoint x="540" y="270" as="sourcePoint" />
            <mxPoint x="700" y="270" as="targetPoint" />
          </mxGeometry>
        </mxCell>
        <mxCell id="lG-DeSuz2KqsoeOrAYIB-60" value="" style="endArrow=none;html=1;rounded=0;exitX=0.5;exitY=1;exitDx=0;exitDy=0;entryX=0.75;entryY=0;entryDx=0;entryDy=0;edgeStyle=orthogonalEdgeStyle;" parent="1" source="lG-DeSuz2KqsoeOrAYIB-56" target="lG-DeSuz2KqsoeOrAYIB-5" edge="1">
          <mxGeometry relative="1" as="geometry">
            <mxPoint x="540" y="270" as="sourcePoint" />
            <mxPoint x="700" y="270" as="targetPoint" />
          </mxGeometry>
        </mxCell>
        <mxCell id="lG-DeSuz2KqsoeOrAYIB-61" value="" style="endArrow=none;html=1;rounded=0;exitX=0;exitY=0.5;exitDx=0;exitDy=0;entryX=1;entryY=0.5;entryDx=0;entryDy=0;" parent="1" source="lG-DeSuz2KqsoeOrAYIB-57" target="lG-DeSuz2KqsoeOrAYIB-5" edge="1">
          <mxGeometry relative="1" as="geometry">
            <mxPoint x="540" y="270" as="sourcePoint" />
            <mxPoint x="700" y="270" as="targetPoint" />
          </mxGeometry>
        </mxCell>
        <mxCell id="lG-DeSuz2KqsoeOrAYIB-62" value="Part" style="whiteSpace=wrap;html=1;align=center;" parent="1" vertex="1">
          <mxGeometry x="120" y="520" width="100" height="40" as="geometry" />
        </mxCell>
        <mxCell id="SNfqGnCm9uJv3Dc7MWaB-3" style="edgeStyle=orthogonalEdgeStyle;rounded=0;orthogonalLoop=1;jettySize=auto;html=1;exitX=1;exitY=0.5;exitDx=0;exitDy=0;endArrow=none;endFill=0;" edge="1" parent="1" source="SNfqGnCm9uJv3Dc7MWaB-1" target="lG-DeSuz2KqsoeOrAYIB-62">
          <mxGeometry relative="1" as="geometry" />
        </mxCell>
        <mxCell id="SNfqGnCm9uJv3Dc7MWaB-1" value="Cost" style="ellipse;whiteSpace=wrap;html=1;" vertex="1" parent="1">
          <mxGeometry x="-35" y="515" width="110" height="50" as="geometry" />
        </mxCell>
      </root>
    </mxGraphModel>
  </diagram>
</mxfile>
